# xmcd CD database file
#
# Track frame offsets:
#	183
#	36690
#	52778
#	73323
#	94623
#	116590
#	135388
#	153630
#	190490
#	214355
#	251240
#	265260
#	298015
#	316113
#
# Disc length: 4630 seconds
#
# Revision: 0
# Processed by: cddbd v1.4PL0 Copyright (c) Steve Scherf et al.
# Submitted via: CDex 1.50Beta7
#
DISCID=dc12140e
DTITLE=Various Artist - The Best Of Latin Jazz
DYEAR=1900
DGENRE=Jazz
TTITLE0=Kenny Burrel/Nica's Dream
TTITLE1=Cannonball Adderley/Sambop
TTITLE2=Johnny Lytle/Gunky
TTITLE3=Sonny Stitt/Baion Baby
TTITLE4=Billy Taylor Trio/Mambo Inn
TTITLE5=Pucho and The Latin Soul Brothers/Caravan
TTITLE6=Mongo Santamaria with La Lupe/Montuneando
TTITLE7=Art Brakey's Jazz Messengers/Ping Pong
TTITLE8=Art Farmer Septet/Mau Mau
TTITLE9=Red Garland Trio/Manteca
TTITLE10=Willie Rodriguez/Seafood Wally
TTITLE11=Brothter Jack McDuff/Screamin'
TTITLE12=Montego Joe/Fat Man
TTITLE13=Eric Dorphy and Latin Jazz 5/Mambo Ricci
EXTD=
EXTT0=
EXTT1=
EXTT2=
EXTT3=
EXTT4=
EXTT5=
EXTT6=
EXTT7=
EXTT8=
EXTT9=
EXTT10=
EXTT11=
EXTT12=
EXTT13=
PLAYORDER=
